<svg xmlns="http://www.w3.org/2000/svg" xmlns:xlink="http://www.w3.org/1999/xlink" width="800" zoomAndPan="magnify" viewBox="0 0 300 299.999988" height="800" preserveAspectRatio="xMidYMid meet" version="1.0"><defs><g/><linearGradient x1="200" gradientTransform="matrix(0.75, 0, 0, 0.75, 0.000006, 0)" y1="0" x2="200" gradientUnits="userSpaceOnUse" y2="399.999983" id="e95f429934"><stop stop-opacity="1" stop-color="rgb(99.609375%, 100%, 100%)" offset="0"/><stop stop-opacity="1" stop-color="rgb(99.433899%, 99.821472%, 99.821472%)" offset="0.015625"/><stop stop-opacity="1" stop-color="rgb(99.084473%, 99.465942%, 99.465942%)" offset="0.03125"/><stop stop-opacity="1" stop-color="rgb(98.735046%, 99.110413%, 99.110413%)" offset="0.046875"/><stop stop-opacity="1" stop-color="rgb(98.38562%, 98.754883%, 98.754883%)" offset="0.0625"/><stop stop-opacity="1" stop-color="rgb(98.036194%, 98.399353%, 98.399353%)" offset="0.078125"/><stop stop-opacity="1" stop-color="rgb(97.686768%, 98.043823%, 98.043823%)" offset="0.09375"/><stop stop-opacity="1" stop-color="rgb(97.337341%, 97.688293%, 97.688293%)" offset="0.109375"/><stop stop-opacity="1" stop-color="rgb(96.987915%, 97.332764%, 97.332764%)" offset="0.125"/><stop stop-opacity="1" stop-color="rgb(96.638489%, 96.977234%, 96.977234%)" offset="0.140625"/><stop stop-opacity="1" stop-color="rgb(96.289062%, 96.621704%, 96.621704%)" offset="0.15625"/><stop stop-opacity="1" stop-color="rgb(95.939636%, 96.266174%, 96.266174%)" offset="0.171875"/><stop stop-opacity="1" stop-color="rgb(95.59021%, 95.910645%, 95.910645%)" offset="0.1875"/><stop stop-opacity="1" stop-color="rgb(95.240784%, 95.555115%, 95.555115%)" offset="0.203125"/><stop stop-opacity="1" stop-color="rgb(94.891357%, 95.199585%, 95.199585%)" offset="0.21875"/><stop stop-opacity="1" stop-color="rgb(94.541931%, 94.844055%, 94.844055%)" offset="0.234375"/><stop stop-opacity="1" stop-color="rgb(94.192505%, 94.488525%, 94.488525%)" offset="0.25"/><stop stop-opacity="1" stop-color="rgb(93.843079%, 94.132996%, 94.132996%)" offset="0.265625"/><stop stop-opacity="1" stop-color="rgb(93.495178%, 93.777466%, 93.777466%)" offset="0.28125"/><stop stop-opacity="1" stop-color="rgb(93.145752%, 93.421936%, 93.421936%)" offset="0.296875"/><stop stop-opacity="1" stop-color="rgb(92.796326%, 93.066406%, 93.066406%)" offset="0.3125"/><stop stop-opacity="1" stop-color="rgb(92.446899%, 92.710876%, 92.710876%)" offset="0.328125"/><stop stop-opacity="1" stop-color="rgb(92.097473%, 92.355347%, 92.355347%)" offset="0.34375"/><stop stop-opacity="1" stop-color="rgb(91.748047%, 91.999817%, 91.999817%)" offset="0.359375"/><stop stop-opacity="1" stop-color="rgb(91.398621%, 91.644287%, 91.644287%)" offset="0.375"/><stop stop-opacity="1" stop-color="rgb(91.049194%, 91.290283%, 91.290283%)" offset="0.390625"/><stop stop-opacity="1" stop-color="rgb(90.699768%, 90.934753%, 90.934753%)" offset="0.40625"/><stop stop-opacity="1" stop-color="rgb(90.350342%, 90.579224%, 90.579224%)" offset="0.421875"/><stop stop-opacity="1" stop-color="rgb(90.000916%, 90.223694%, 90.223694%)" offset="0.4375"/><stop stop-opacity="1" stop-color="rgb(89.651489%, 89.868164%, 89.868164%)" offset="0.453125"/><stop stop-opacity="1" stop-color="rgb(89.302063%, 89.512634%, 89.512634%)" offset="0.46875"/><stop stop-opacity="1" stop-color="rgb(88.952637%, 89.157104%, 89.157104%)" offset="0.484375"/><stop stop-opacity="1" stop-color="rgb(88.60321%, 88.801575%, 88.801575%)" offset="0.5"/><stop stop-opacity="1" stop-color="rgb(88.253784%, 88.446045%, 88.446045%)" offset="0.515625"/><stop stop-opacity="1" stop-color="rgb(87.904358%, 88.090515%, 88.090515%)" offset="0.53125"/><stop stop-opacity="1" stop-color="rgb(87.554932%, 87.734985%, 87.734985%)" offset="0.546875"/><stop stop-opacity="1" stop-color="rgb(87.205505%, 87.379456%, 87.379456%)" offset="0.5625"/><stop stop-opacity="1" stop-color="rgb(86.856079%, 87.023926%, 87.023926%)" offset="0.578125"/><stop stop-opacity="1" stop-color="rgb(86.506653%, 86.668396%, 86.668396%)" offset="0.59375"/><stop stop-opacity="1" stop-color="rgb(86.157227%, 86.312866%, 86.312866%)" offset="0.609375"/><stop stop-opacity="1" stop-color="rgb(85.8078%, 85.957336%, 85.957336%)" offset="0.625"/><stop stop-opacity="1" stop-color="rgb(85.458374%, 85.601807%, 85.601807%)" offset="0.640625"/><stop stop-opacity="1" stop-color="rgb(85.108948%, 85.246277%, 85.246277%)" offset="0.65625"/><stop stop-opacity="1" stop-color="rgb(84.759521%, 84.890747%, 84.890747%)" offset="0.671875"/><stop stop-opacity="1" stop-color="rgb(84.410095%, 84.535217%, 84.535217%)" offset="0.6875"/><stop stop-opacity="1" stop-color="rgb(84.060669%, 84.179688%, 84.179688%)" offset="0.703125"/><stop stop-opacity="1" stop-color="rgb(83.711243%, 83.824158%, 83.824158%)" offset="0.71875"/><stop stop-opacity="1" stop-color="rgb(83.361816%, 83.468628%, 83.468628%)" offset="0.734375"/><stop stop-opacity="1" stop-color="rgb(83.013916%, 83.113098%, 83.113098%)" offset="0.75"/><stop stop-opacity="1" stop-color="rgb(82.66449%, 82.757568%, 82.757568%)" offset="0.765625"/><stop stop-opacity="1" stop-color="rgb(82.315063%, 82.403564%, 82.403564%)" offset="0.78125"/><stop stop-opacity="1" stop-color="rgb(81.965637%, 82.048035%, 82.048035%)" offset="0.796875"/><stop stop-opacity="1" stop-color="rgb(81.616211%, 81.692505%, 81.692505%)" offset="0.8125"/><stop stop-opacity="1" stop-color="rgb(81.266785%, 81.336975%, 81.336975%)" offset="0.828125"/><stop stop-opacity="1" stop-color="rgb(80.917358%, 80.981445%, 80.981445%)" offset="0.84375"/><stop stop-opacity="1" stop-color="rgb(80.567932%, 80.625916%, 80.625916%)" offset="0.859375"/><stop stop-opacity="1" stop-color="rgb(80.218506%, 80.270386%, 80.270386%)" offset="0.875"/><stop stop-opacity="1" stop-color="rgb(79.86908%, 79.914856%, 79.914856%)" offset="0.890625"/><stop stop-opacity="1" stop-color="rgb(79.519653%, 79.559326%, 79.559326%)" offset="0.90625"/><stop stop-opacity="1" stop-color="rgb(79.170227%, 79.203796%, 79.203796%)" offset="0.921875"/><stop stop-opacity="1" stop-color="rgb(78.820801%, 78.848267%, 78.848267%)" offset="0.9375"/><stop stop-opacity="1" stop-color="rgb(78.471375%, 78.492737%, 78.492737%)" offset="0.953125"/><stop stop-opacity="1" stop-color="rgb(78.121948%, 78.137207%, 78.137207%)" offset="0.96875"/><stop stop-opacity="1" stop-color="rgb(77.772522%, 77.781677%, 77.781677%)" offset="0.984375"/><stop stop-opacity="1" stop-color="rgb(77.423096%, 77.426147%, 77.426147%)" offset="1"/></linearGradient><clipPath id="cded983d64"><path d="M 105.339844 197.445312 L 116.589844 197.445312 L 116.589844 208.695312 L 105.339844 208.695312 Z M 105.339844 197.445312 " clip-rule="nonzero"/></clipPath><clipPath id="26e8677e1e"><path d="M 15 0.480469 L 33 0.480469 L 33 20 L 15 20 Z M 15 0.480469 " clip-rule="nonzero"/></clipPath><clipPath id="a6a574cbc1"><path d="M 53 0.480469 L 70 0.480469 L 70 21 L 53 21 Z M 53 0.480469 " clip-rule="nonzero"/></clipPath><clipPath id="c98e1f28ea"></clipPath><clipPath id="3cb77ec223"><path d="M 193.347656 152.371094 L 204.597656 152.371094 L 204.597656 163.621094 L 193.347656 163.621094 Z M 193.347656 152.371094 " clip-rule="nonzero"/></clipPath><clipPath id="56f66508d4"><path d="M 85 109.097656 L 193.949219 109.097656 L 193.949219 199.097656 L 85 199.097656 Z M 85 109.097656 " clip-rule="nonzero"/></clipPath><clipPath id="0eda171652"><path d="M 1 7 L 10 7 L 10 13.71875 L 1 13.71875 Z M 1 7 " clip-rule="nonzero"/></clipPath><clipPath id="478109685a"></clipPath></defs><g clip-path="url(#cded983d64)"><path fill="#231f20" d="M 111.105469 200.457031 C 111.140625 200.773438 111.226562 201.074219 111.363281 201.363281 C 111.5 201.648438 111.683594 201.90625 111.90625 202.132812 C 112.132812 202.355469 112.390625 202.539062 112.675781 202.675781 C 112.964844 202.8125 113.265625 202.898438 113.582031 202.933594 C 114.34375 203.019531 115.324219 203.070312 116.59375 203.070312 C 115.324219 203.070312 114.34375 203.125 113.582031 203.210938 C 113.265625 203.242188 112.964844 203.328125 112.675781 203.46875 C 112.390625 203.605469 112.132812 203.785156 111.90625 204.011719 C 111.683594 204.238281 111.5 204.492188 111.363281 204.78125 C 111.226562 205.070312 111.140625 205.371094 111.105469 205.6875 C 111.019531 206.449219 110.96875 207.429688 110.96875 208.699219 C 110.96875 207.429688 110.914062 206.449219 110.828125 205.6875 C 110.796875 205.371094 110.707031 205.070312 110.570312 204.78125 C 110.433594 204.492188 110.25 204.238281 110.027344 204.011719 C 109.800781 203.785156 109.546875 203.605469 109.257812 203.46875 C 108.96875 203.328125 108.667969 203.242188 108.351562 203.210938 C 107.589844 203.125 106.609375 203.070312 105.339844 203.070312 C 106.609375 203.070312 107.589844 203.019531 108.351562 202.933594 C 108.667969 202.898438 108.96875 202.8125 109.257812 202.675781 C 109.546875 202.539062 109.800781 202.355469 110.027344 202.132812 C 110.25 201.90625 110.433594 201.648438 110.570312 201.363281 C 110.707031 201.074219 110.796875 200.773438 110.828125 200.457031 C 110.914062 199.695312 110.96875 198.714844 110.96875 197.445312 C 110.96875 198.714844 111.019531 199.695312 111.105469 200.457031 Z M 111.105469 200.457031 " fill-opacity="1" fill-rule="nonzero"/></g><g transform="matrix(1, 0, 0, 1, 120, 168)"><g clip-path="url(#c98e1f28ea)"><g fill="#000000" fill-opacity="1"><g transform="translate(0.0702501, 19.963968)"><g><path d="M 12.25 -15.21875 C 11.582031 -15.582031 10.875 -15.875 10.125 -16.09375 C 9.375 -16.3125 8.664062 -16.421875 8 -16.421875 C 6.988281 -16.421875 6.1875 -16.191406 5.59375 -15.734375 C 5.007812 -15.285156 4.71875 -14.671875 4.71875 -13.890625 C 4.71875 -13.117188 5.0625 -12.488281 5.75 -12 C 6.445312 -11.519531 7.4375 -11.039062 8.71875 -10.5625 C 9.664062 -10.21875 10.46875 -9.84375 11.125 -9.4375 C 11.789062 -9.039062 12.335938 -8.488281 12.765625 -7.78125 C 13.203125 -7.070312 13.421875 -6.171875 13.421875 -5.078125 C 13.421875 -4.085938 13.171875 -3.1875 12.671875 -2.375 C 12.179688 -1.570312 11.476562 -0.941406 10.5625 -0.484375 C 9.65625 -0.0234375 8.585938 0.203125 7.359375 0.203125 C 6.210938 0.203125 5.109375 0.0195312 4.046875 -0.34375 C 2.984375 -0.707031 2.050781 -1.175781 1.25 -1.75 L 2.359375 -3.71875 C 2.992188 -3.238281 3.753906 -2.832031 4.640625 -2.5 C 5.523438 -2.164062 6.351562 -2 7.125 -2 C 8.113281 -2 8.976562 -2.253906 9.71875 -2.765625 C 10.46875 -3.273438 10.84375 -4.035156 10.84375 -5.046875 C 10.84375 -5.898438 10.53125 -6.578125 9.90625 -7.078125 C 9.28125 -7.585938 8.40625 -8.0625 7.28125 -8.5 C 6.238281 -8.894531 5.367188 -9.28125 4.671875 -9.65625 C 3.984375 -10.03125 3.390625 -10.546875 2.890625 -11.203125 C 2.398438 -11.867188 2.15625 -12.695312 2.15625 -13.6875 C 2.15625 -15.132812 2.660156 -16.304688 3.671875 -17.203125 C 4.691406 -18.097656 6.015625 -18.570312 7.640625 -18.625 C 9.640625 -18.625 11.492188 -18.128906 13.203125 -17.140625 Z M 12.25 -15.21875 "/></g></g></g><g clip-path="url(#26e8677e1e)"><g fill="#000000" fill-opacity="1"><g transform="translate(14.983845, 19.963968)"><g><path d="M 12.375 -4.875 L 5.25 -4.875 L 3.28125 0 L 0.8125 0 L 8.921875 -19.296875 L 9.078125 -19.296875 L 17.171875 0 L 14.296875 0 Z M 11.53125 -7.015625 L 8.890625 -13.78125 L 6.15625 -7.015625 Z M 11.53125 -7.015625 "/></g></g></g></g><g fill="#000000" fill-opacity="1"><g transform="translate(32.946787, 19.963968)"><g><path d="M 5.125 -10.140625 L 5.4375 -10.640625 L 13.015625 -18.53125 L 16.21875 -18.53125 L 8.5625 -10.578125 L 16.65625 0 L 13.5 0 L 6.734375 -9 L 5.171875 -7.484375 L 5.203125 0 L 2.671875 0 L 2.671875 -18.53125 L 5.203125 -18.53125 L 5.203125 -11.0625 Z M 5.125 -10.140625 "/></g></g></g><g clip-path="url(#a6a574cbc1)"><g fill="#000000" fill-opacity="1"><g transform="translate(50.371603, 19.963968)"><g><path d="M 18.8125 -18.53125 L 18.8125 0.609375 L 18.734375 0.609375 L 5.125 -13.203125 L 5.171875 0 L 2.671875 0 L 2.671875 -19.09375 L 2.796875 -19.09375 L 16.375 -5.125 L 16.328125 -18.53125 Z M 18.8125 -18.53125 "/></g></g></g></g><g fill="#000000" fill-opacity="1"><g transform="translate(71.845131, 19.963968)"><g><path d="M 17.015625 -18.53125 L 10.078125 -6.171875 L 10.078125 0 L 7.578125 0 L 7.578125 -6.171875 L 0.71875 -18.53125 L 3.796875 -18.53125 L 8.890625 -9 L 13.96875 -18.53125 Z M 17.015625 -18.53125 "/></g></g></g></g></g><g clip-path="url(#3cb77ec223)"><path fill="#231f20" d="M 199.109375 155.382812 C 199.144531 155.699219 199.230469 156 199.367188 156.289062 C 199.507812 156.574219 199.6875 156.832031 199.914062 157.058594 C 200.136719 157.28125 200.394531 157.464844 200.683594 157.601562 C 200.96875 157.738281 201.273438 157.824219 201.589844 157.859375 C 202.347656 157.941406 203.332031 157.996094 204.597656 157.996094 C 203.332031 157.996094 202.347656 158.050781 201.589844 158.132812 C 201.273438 158.167969 200.96875 158.253906 200.683594 158.394531 C 200.394531 158.53125 200.136719 158.710938 199.914062 158.9375 C 199.6875 159.164062 199.507812 159.417969 199.367188 159.707031 C 199.230469 159.992188 199.144531 160.296875 199.109375 160.613281 C 199.027344 161.371094 198.972656 162.355469 198.972656 163.621094 C 198.972656 162.355469 198.917969 161.371094 198.835938 160.613281 C 198.800781 160.296875 198.714844 159.992188 198.578125 159.707031 C 198.441406 159.417969 198.257812 159.164062 198.03125 158.9375 C 197.808594 158.710938 197.550781 158.53125 197.265625 158.394531 C 196.976562 158.253906 196.675781 158.167969 196.359375 158.132812 C 195.597656 158.050781 194.617188 157.996094 193.347656 157.996094 C 194.617188 157.996094 195.597656 157.941406 196.359375 157.859375 C 196.675781 157.824219 196.976562 157.738281 197.265625 157.601562 C 197.550781 157.464844 197.808594 157.28125 198.03125 157.058594 C 198.257812 156.832031 198.441406 156.574219 198.578125 156.289062 C 198.714844 156 198.800781 155.699219 198.835938 155.382812 C 198.917969 154.621094 198.972656 153.640625 198.972656 152.371094 C 198.972656 153.640625 199.027344 154.621094 199.109375 155.382812 Z M 199.109375 155.382812 " fill-opacity="1" fill-rule="nonzero"/></g><path fill="#000000" d="M 142.507812 137.398438 L 147.175781 137.398438 L 147.175781 132.601562 C 147.21875 132.601562 142.730469 132.863281 142.507812 137.398438 Z M 142.507812 137.398438 " fill-opacity="1" fill-rule="nonzero"/><path fill="#000000" d="M 142.507812 138.542969 L 147.21875 138.542969 L 147.21875 143.296875 L 142.507812 143.296875 Z M 142.507812 138.542969 " fill-opacity="1" fill-rule="nonzero"/><path fill="#000000" d="M 148.097656 132.601562 L 148.097656 137.398438 L 152.765625 137.398438 C 152.585938 132.863281 148.097656 132.601562 148.097656 132.601562 Z M 148.097656 132.601562 " fill-opacity="1" fill-rule="nonzero"/><path fill="#000000" d="M 148.097656 138.542969 L 152.808594 138.542969 L 152.808594 143.296875 L 148.097656 143.296875 Z M 148.097656 138.542969 " fill-opacity="1" fill-rule="nonzero"/><g clip-path="url(#56f66508d4)"><path fill="#000000" d="M 148.496094 109.097656 L 136.039062 124.5 L 136.039062 118.691406 L 131.417969 118.691406 L 131.417969 130.222656 L 118.476562 146.199219 L 147.613281 124.898438 L 187.359375 154.429688 C 151.179688 143.207031 105.890625 149.148438 90.96875 165.785156 C 73.980469 185.988281 104.921875 199.238281 104.921875 199.238281 C 91.101562 187.222656 91.671875 175.46875 99.726562 167.636719 C 111.699219 156.632812 126.136719 154.429688 133.222656 153.023438 C 163.679688 147.742188 186.609375 155.488281 191.144531 157.203125 L 191.40625 157.378906 C 135.070312 143.605469 110.160156 164.289062 110.160156 164.289062 C 151.882812 146.199219 193.917969 159.316406 193.917969 159.316406 Z M 148.496094 109.097656 " fill-opacity="1" fill-rule="nonzero"/></g><g transform="matrix(1, 0, 0, 1, 139, 197)"><g clip-path="url(#478109685a)"><g clip-path="url(#0eda171652)"><g fill="#000000" fill-opacity="1"><g transform="translate(0.99815, 8.935418)"><g><path d="M 0.328125 0.015625 C 0.328125 -0.242188 0.363281 -0.53125 0.4375 -0.84375 C 0.507812 -1.164062 0.625 -1.519531 0.78125 -1.90625 L 1.5625 -1.609375 C 1.445312 -1.304688 1.359375 -1.023438 1.296875 -0.765625 C 1.242188 -0.515625 1.21875 -0.28125 1.21875 -0.0625 C 1.21875 0.34375 1.332031 0.671875 1.5625 0.921875 C 1.800781 1.171875 2.113281 1.351562 2.5 1.46875 C 2.882812 1.582031 3.3125 1.640625 3.78125 1.640625 C 4.332031 1.640625 4.835938 1.578125 5.296875 1.453125 C 5.765625 1.328125 6.132812 1.15625 6.40625 0.9375 C 6.675781 0.71875 6.8125 0.476562 6.8125 0.21875 C 6.8125 0.03125 6.664062 -0.128906 6.375 -0.265625 C 6.09375 -0.410156 5.691406 -0.550781 5.171875 -0.6875 L 5.375 -1.59375 C 6.125 -1.300781 6.707031 -1.101562 7.125 -1 C 7.550781 -0.894531 7.875 -0.84375 8.09375 -0.84375 C 8.25 -0.84375 8.359375 -0.800781 8.421875 -0.71875 C 8.492188 -0.632812 8.53125 -0.53125 8.53125 -0.40625 C 8.53125 -0.289062 8.476562 -0.1875 8.375 -0.09375 C 8.28125 0 8.15625 0.046875 8 0.046875 L 7.59375 0.046875 C 7.601562 0.117188 7.613281 0.171875 7.625 0.203125 C 7.632812 0.242188 7.640625 0.300781 7.640625 0.375 C 7.640625 0.726562 7.472656 1.066406 7.140625 1.390625 C 6.816406 1.722656 6.347656 1.992188 5.734375 2.203125 C 5.128906 2.410156 4.398438 2.515625 3.546875 2.515625 C 2.960938 2.515625 2.425781 2.421875 1.9375 2.234375 C 1.457031 2.054688 1.066406 1.78125 0.765625 1.40625 C 0.472656 1.039062 0.328125 0.578125 0.328125 0.015625 Z M 4.328125 4.5625 C 4.171875 4.5625 4.039062 4.507812 3.9375 4.40625 C 3.832031 4.300781 3.78125 4.175781 3.78125 4.03125 C 3.78125 3.882812 3.832031 3.757812 3.9375 3.65625 C 4.039062 3.550781 4.171875 3.5 4.328125 3.5 C 4.472656 3.5 4.597656 3.550781 4.703125 3.65625 C 4.804688 3.757812 4.859375 3.882812 4.859375 4.03125 C 4.859375 4.175781 4.804688 4.300781 4.703125 4.40625 C 4.597656 4.507812 4.472656 4.5625 4.328125 4.5625 Z M 2.84375 4.5625 C 2.6875 4.5625 2.554688 4.507812 2.453125 4.40625 C 2.347656 4.300781 2.296875 4.175781 2.296875 4.03125 C 2.296875 3.882812 2.347656 3.757812 2.453125 3.65625 C 2.554688 3.550781 2.6875 3.5 2.84375 3.5 C 2.988281 3.5 3.113281 3.550781 3.21875 3.65625 C 3.320312 3.757812 3.375 3.882812 3.375 4.03125 C 3.375 4.175781 3.320312 4.300781 3.21875 4.40625 C 3.113281 4.507812 2.988281 4.5625 2.84375 4.5625 Z M 2.84375 4.5625 "/></g></g></g></g><g fill="#000000" fill-opacity="1"><g transform="translate(8.989259, 8.935418)"><g><path d="M 0 0.046875 L 0.109375 -0.84375 C 0.410156 -0.84375 0.648438 -0.867188 0.828125 -0.921875 C 1.003906 -0.972656 1.132812 -1.078125 1.21875 -1.234375 C 1.3125 -1.390625 1.390625 -1.613281 1.453125 -1.90625 C 1.515625 -2.207031 1.59375 -2.597656 1.6875 -3.078125 L 2.546875 -2.90625 C 2.492188 -2.707031 2.441406 -2.484375 2.390625 -2.234375 C 2.335938 -1.984375 2.3125 -1.769531 2.3125 -1.59375 C 2.3125 -1.445312 2.34375 -1.316406 2.40625 -1.203125 C 2.476562 -1.085938 2.617188 -1 2.828125 -0.9375 C 3.046875 -0.875 3.378906 -0.84375 3.828125 -0.84375 C 3.984375 -0.84375 4.09375 -0.800781 4.15625 -0.71875 C 4.226562 -0.632812 4.265625 -0.53125 4.265625 -0.40625 C 4.265625 -0.289062 4.210938 -0.1875 4.109375 -0.09375 C 4.015625 0 3.882812 0.046875 3.71875 0.046875 C 3.144531 0.046875 2.722656 -0.0078125 2.453125 -0.125 C 2.179688 -0.25 1.992188 -0.4375 1.890625 -0.6875 C 1.671875 -0.382812 1.421875 -0.1875 1.140625 -0.09375 C 0.859375 0 0.476562 0.046875 0 0.046875 Z M 2.03125 -4.1875 C 1.875 -4.1875 1.742188 -4.238281 1.640625 -4.34375 C 1.535156 -4.457031 1.484375 -4.582031 1.484375 -4.71875 C 1.484375 -4.863281 1.535156 -4.988281 1.640625 -5.09375 C 1.742188 -5.207031 1.875 -5.265625 2.03125 -5.265625 C 2.175781 -5.265625 2.300781 -5.207031 2.40625 -5.09375 C 2.507812 -4.988281 2.5625 -4.863281 2.5625 -4.71875 C 2.5625 -4.582031 2.507812 -4.457031 2.40625 -4.34375 C 2.300781 -4.238281 2.175781 -4.1875 2.03125 -4.1875 Z M 2.03125 -4.1875 "/></g></g></g><g fill="#000000" fill-opacity="1"><g transform="translate(12.713374, 8.935418)"><g><path d="M 0 0.046875 L 0.109375 -0.84375 L 0.9375 -0.84375 C 1.539062 -0.84375 1.988281 -0.875 2.28125 -0.9375 C 2.570312 -1 2.757812 -1.082031 2.84375 -1.1875 C 2.9375 -1.289062 2.984375 -1.40625 2.984375 -1.53125 C 2.984375 -1.707031 2.914062 -1.898438 2.78125 -2.109375 C 2.65625 -2.316406 2.488281 -2.53125 2.28125 -2.75 C 2.082031 -2.96875 1.867188 -3.1875 1.640625 -3.40625 C 1.410156 -3.625 1.191406 -3.820312 0.984375 -4 C 0.785156 -4.1875 0.617188 -4.347656 0.484375 -4.484375 C 0.359375 -4.617188 0.296875 -4.710938 0.296875 -4.765625 C 0.296875 -4.929688 0.3125 -5.085938 0.34375 -5.234375 C 0.382812 -5.378906 0.445312 -5.492188 0.53125 -5.578125 C 0.726562 -5.785156 1.015625 -6 1.390625 -6.21875 C 1.773438 -6.445312 2.210938 -6.679688 2.703125 -6.921875 C 3.191406 -7.171875 3.695312 -7.421875 4.21875 -7.671875 L 4.578125 -6.875 C 3.941406 -6.550781 3.316406 -6.238281 2.703125 -5.9375 C 2.097656 -5.644531 1.566406 -5.34375 1.109375 -5.03125 C 1.503906 -4.6875 1.875 -4.351562 2.21875 -4.03125 C 2.570312 -3.71875 2.894531 -3.378906 3.1875 -3.015625 C 3.488281 -2.648438 3.757812 -2.234375 4 -1.765625 C 4.15625 -1.484375 4.332031 -1.273438 4.53125 -1.140625 C 4.738281 -1.015625 4.941406 -0.929688 5.140625 -0.890625 C 5.335938 -0.859375 5.5 -0.84375 5.625 -0.84375 C 5.78125 -0.84375 5.890625 -0.800781 5.953125 -0.71875 C 6.023438 -0.632812 6.0625 -0.53125 6.0625 -0.40625 C 6.0625 -0.289062 6.007812 -0.1875 5.90625 -0.09375 C 5.800781 0 5.671875 0.046875 5.515625 0.046875 C 5.335938 0.046875 5.132812 0.0234375 4.90625 -0.015625 C 4.6875 -0.0664062 4.457031 -0.15625 4.21875 -0.28125 C 3.988281 -0.414062 3.785156 -0.613281 3.609375 -0.875 C 3.472656 -0.664062 3.296875 -0.492188 3.078125 -0.359375 C 2.859375 -0.222656 2.570312 -0.117188 2.21875 -0.046875 C 1.875 0.015625 1.4375 0.046875 0.90625 0.046875 Z M 0 0.046875 "/></g></g></g><g fill="#000000" fill-opacity="1"><g transform="translate(18.228976, 8.935418)"><g><path d="M 0 0.046875 L 0.109375 -0.84375 C 0.335938 -0.84375 0.523438 -0.859375 0.671875 -0.890625 C 0.816406 -0.921875 0.9375 -1 1.03125 -1.125 C 1.132812 -1.257812 1.226562 -1.472656 1.3125 -1.765625 C 1.394531 -2.054688 1.5 -2.460938 1.625 -2.984375 L 2.4375 -2.765625 C 2.394531 -2.566406 2.34375 -2.34375 2.28125 -2.09375 C 2.21875 -1.84375 2.1875 -1.613281 2.1875 -1.40625 C 2.1875 -1.226562 2.253906 -1.085938 2.390625 -0.984375 C 2.535156 -0.890625 2.789062 -0.84375 3.15625 -0.84375 C 3.363281 -0.84375 3.535156 -0.859375 3.671875 -0.890625 C 3.816406 -0.921875 3.929688 -1.003906 4.015625 -1.140625 C 4.109375 -1.285156 4.191406 -1.507812 4.265625 -1.8125 C 4.335938 -2.113281 4.414062 -2.53125 4.5 -3.0625 L 5.328125 -2.90625 C 5.296875 -2.78125 5.265625 -2.625 5.234375 -2.4375 C 5.203125 -2.25 5.175781 -2.0625 5.15625 -1.875 C 5.132812 -1.6875 5.125 -1.53125 5.125 -1.40625 C 5.125 -1.3125 5.144531 -1.21875 5.1875 -1.125 C 5.238281 -1.03125 5.332031 -0.957031 5.46875 -0.90625 C 5.613281 -0.863281 5.828125 -0.84375 6.109375 -0.84375 C 6.421875 -0.84375 6.671875 -0.898438 6.859375 -1.015625 C 7.046875 -1.140625 7.140625 -1.390625 7.140625 -1.765625 C 7.140625 -2.035156 7.078125 -2.378906 6.953125 -2.796875 C 6.828125 -3.222656 6.6875 -3.640625 6.53125 -4.046875 L 7.40625 -4.375 C 7.488281 -4.132812 7.570312 -3.867188 7.65625 -3.578125 C 7.75 -3.285156 7.820312 -2.992188 7.875 -2.703125 C 7.9375 -2.410156 7.96875 -2.15625 7.96875 -1.9375 C 7.96875 -1.269531 7.800781 -0.769531 7.46875 -0.4375 C 7.132812 -0.113281 6.679688 0.046875 6.109375 0.046875 C 5.703125 0.046875 5.382812 -0.00390625 5.15625 -0.109375 C 4.9375 -0.210938 4.773438 -0.375 4.671875 -0.59375 C 4.492188 -0.332031 4.285156 -0.160156 4.046875 -0.078125 C 3.804688 0.00390625 3.460938 0.046875 3.015625 0.046875 C 2.867188 0.046875 2.707031 0.03125 2.53125 0 C 2.363281 -0.03125 2.207031 -0.0976562 2.0625 -0.203125 C 1.914062 -0.316406 1.804688 -0.476562 1.734375 -0.6875 C 1.535156 -0.363281 1.296875 -0.160156 1.015625 -0.078125 C 0.742188 0.00390625 0.40625 0.046875 0 0.046875 Z M 0 0.046875 "/></g></g></g></g></g></svg>