<svg xmlns="http://www.w3.org/2000/svg" xmlns:xlink="http://www.w3.org/1999/xlink" width="200" zoomAndPan="magnify" viewBox="0 0 150 149.999998" height="200" preserveAspectRatio="xMidYMid meet" version="1.0"><defs><g/><linearGradient x1="100" gradientTransform="matrix(0.75, 0, 0, 0.75, 0.00000125, 0.000002)" y1="-0" x2="100" gradientUnits="userSpaceOnUse" y2="199.999992" id="5af5be59fd"><stop stop-opacity="1" stop-color="rgb(99.609375%, 100%, 100%)" offset="0"/><stop stop-opacity="1" stop-color="rgb(99.433899%, 99.821472%, 99.821472%)" offset="0.015625"/><stop stop-opacity="1" stop-color="rgb(99.084473%, 99.465942%, 99.465942%)" offset="0.03125"/><stop stop-opacity="1" stop-color="rgb(98.735046%, 99.110413%, 99.110413%)" offset="0.046875"/><stop stop-opacity="1" stop-color="rgb(98.38562%, 98.754883%, 98.754883%)" offset="0.0625"/><stop stop-opacity="1" stop-color="rgb(98.036194%, 98.399353%, 98.399353%)" offset="0.078125"/><stop stop-opacity="1" stop-color="rgb(97.686768%, 98.043823%, 98.043823%)" offset="0.09375"/><stop stop-opacity="1" stop-color="rgb(97.337341%, 97.688293%, 97.688293%)" offset="0.109375"/><stop stop-opacity="1" stop-color="rgb(96.987915%, 97.332764%, 97.332764%)" offset="0.125"/><stop stop-opacity="1" stop-color="rgb(96.638489%, 96.977234%, 96.977234%)" offset="0.140625"/><stop stop-opacity="1" stop-color="rgb(96.289062%, 96.621704%, 96.621704%)" offset="0.15625"/><stop stop-opacity="1" stop-color="rgb(95.939636%, 96.266174%, 96.266174%)" offset="0.171875"/><stop stop-opacity="1" stop-color="rgb(95.59021%, 95.910645%, 95.910645%)" offset="0.1875"/><stop stop-opacity="1" stop-color="rgb(95.240784%, 95.555115%, 95.555115%)" offset="0.203125"/><stop stop-opacity="1" stop-color="rgb(94.891357%, 95.199585%, 95.199585%)" offset="0.21875"/><stop stop-opacity="1" stop-color="rgb(94.541931%, 94.844055%, 94.844055%)" offset="0.234375"/><stop stop-opacity="1" stop-color="rgb(94.192505%, 94.488525%, 94.488525%)" offset="0.25"/><stop stop-opacity="1" stop-color="rgb(93.843079%, 94.132996%, 94.132996%)" offset="0.265625"/><stop stop-opacity="1" stop-color="rgb(93.495178%, 93.777466%, 93.777466%)" offset="0.28125"/><stop stop-opacity="1" stop-color="rgb(93.145752%, 93.421936%, 93.421936%)" offset="0.296875"/><stop stop-opacity="1" stop-color="rgb(92.796326%, 93.066406%, 93.066406%)" offset="0.3125"/><stop stop-opacity="1" stop-color="rgb(92.446899%, 92.710876%, 92.710876%)" offset="0.328125"/><stop stop-opacity="1" stop-color="rgb(92.097473%, 92.355347%, 92.355347%)" offset="0.34375"/><stop stop-opacity="1" stop-color="rgb(91.748047%, 91.999817%, 91.999817%)" offset="0.359375"/><stop stop-opacity="1" stop-color="rgb(91.398621%, 91.644287%, 91.644287%)" offset="0.375"/><stop stop-opacity="1" stop-color="rgb(91.049194%, 91.290283%, 91.290283%)" offset="0.390625"/><stop stop-opacity="1" stop-color="rgb(90.699768%, 90.934753%, 90.934753%)" offset="0.40625"/><stop stop-opacity="1" stop-color="rgb(90.350342%, 90.579224%, 90.579224%)" offset="0.421875"/><stop stop-opacity="1" stop-color="rgb(90.000916%, 90.223694%, 90.223694%)" offset="0.4375"/><stop stop-opacity="1" stop-color="rgb(89.651489%, 89.868164%, 89.868164%)" offset="0.453125"/><stop stop-opacity="1" stop-color="rgb(89.302063%, 89.512634%, 89.512634%)" offset="0.46875"/><stop stop-opacity="1" stop-color="rgb(88.952637%, 89.157104%, 89.157104%)" offset="0.484375"/><stop stop-opacity="1" stop-color="rgb(88.60321%, 88.801575%, 88.801575%)" offset="0.5"/><stop stop-opacity="1" stop-color="rgb(88.253784%, 88.446045%, 88.446045%)" offset="0.515625"/><stop stop-opacity="1" stop-color="rgb(87.904358%, 88.090515%, 88.090515%)" offset="0.53125"/><stop stop-opacity="1" stop-color="rgb(87.554932%, 87.734985%, 87.734985%)" offset="0.546875"/><stop stop-opacity="1" stop-color="rgb(87.205505%, 87.379456%, 87.379456%)" offset="0.5625"/><stop stop-opacity="1" stop-color="rgb(86.856079%, 87.023926%, 87.023926%)" offset="0.578125"/><stop stop-opacity="1" stop-color="rgb(86.506653%, 86.668396%, 86.668396%)" offset="0.59375"/><stop stop-opacity="1" stop-color="rgb(86.157227%, 86.312866%, 86.312866%)" offset="0.609375"/><stop stop-opacity="1" stop-color="rgb(85.8078%, 85.957336%, 85.957336%)" offset="0.625"/><stop stop-opacity="1" stop-color="rgb(85.458374%, 85.601807%, 85.601807%)" offset="0.640625"/><stop stop-opacity="1" stop-color="rgb(85.108948%, 85.246277%, 85.246277%)" offset="0.65625"/><stop stop-opacity="1" stop-color="rgb(84.759521%, 84.890747%, 84.890747%)" offset="0.671875"/><stop stop-opacity="1" stop-color="rgb(84.410095%, 84.535217%, 84.535217%)" offset="0.6875"/><stop stop-opacity="1" stop-color="rgb(84.060669%, 84.179688%, 84.179688%)" offset="0.703125"/><stop stop-opacity="1" stop-color="rgb(83.711243%, 83.824158%, 83.824158%)" offset="0.71875"/><stop stop-opacity="1" stop-color="rgb(83.361816%, 83.468628%, 83.468628%)" offset="0.734375"/><stop stop-opacity="1" stop-color="rgb(83.013916%, 83.113098%, 83.113098%)" offset="0.75"/><stop stop-opacity="1" stop-color="rgb(82.66449%, 82.757568%, 82.757568%)" offset="0.765625"/><stop stop-opacity="1" stop-color="rgb(82.315063%, 82.403564%, 82.403564%)" offset="0.78125"/><stop stop-opacity="1" stop-color="rgb(81.965637%, 82.048035%, 82.048035%)" offset="0.796875"/><stop stop-opacity="1" stop-color="rgb(81.616211%, 81.692505%, 81.692505%)" offset="0.8125"/><stop stop-opacity="1" stop-color="rgb(81.266785%, 81.336975%, 81.336975%)" offset="0.828125"/><stop stop-opacity="1" stop-color="rgb(80.917358%, 80.981445%, 80.981445%)" offset="0.84375"/><stop stop-opacity="1" stop-color="rgb(80.567932%, 80.625916%, 80.625916%)" offset="0.859375"/><stop stop-opacity="1" stop-color="rgb(80.218506%, 80.270386%, 80.270386%)" offset="0.875"/><stop stop-opacity="1" stop-color="rgb(79.86908%, 79.914856%, 79.914856%)" offset="0.890625"/><stop stop-opacity="1" stop-color="rgb(79.519653%, 79.559326%, 79.559326%)" offset="0.90625"/><stop stop-opacity="1" stop-color="rgb(79.170227%, 79.203796%, 79.203796%)" offset="0.921875"/><stop stop-opacity="1" stop-color="rgb(78.820801%, 78.848267%, 78.848267%)" offset="0.9375"/><stop stop-opacity="1" stop-color="rgb(78.471375%, 78.492737%, 78.492737%)" offset="0.953125"/><stop stop-opacity="1" stop-color="rgb(78.121948%, 78.137207%, 78.137207%)" offset="0.96875"/><stop stop-opacity="1" stop-color="rgb(77.772522%, 77.781677%, 77.781677%)" offset="0.984375"/><stop stop-opacity="1" stop-color="rgb(77.423096%, 77.426147%, 77.426147%)" offset="1"/></linearGradient><clipPath id="7271335610"><path d="M 52.671875 98.722656 L 58.671875 98.722656 L 58.671875 104.722656 L 52.671875 104.722656 Z M 52.671875 98.722656 " clip-rule="nonzero"/></clipPath><clipPath id="4ea36e8648"><path d="M 0 0.238281 L 7 0.238281 L 7 11 L 0 11 Z M 0 0.238281 " clip-rule="nonzero"/></clipPath><clipPath id="ce3b11f456"><path d="M 7 0.238281 L 17 0.238281 L 17 10 L 7 10 Z M 7 0.238281 " clip-rule="nonzero"/></clipPath><clipPath id="b2cebbc045"><path d="M 17 0.238281 L 25 0.238281 L 25 10 L 17 10 Z M 17 0.238281 " clip-rule="nonzero"/></clipPath><clipPath id="9ced3777c2"><path d="M 26 0.238281 L 35 0.238281 L 35 11 L 26 11 Z M 26 0.238281 " clip-rule="nonzero"/></clipPath><clipPath id="011d95a5d5"><path d="M 36 0.238281 L 44.878906 0.238281 L 44.878906 10 L 36 10 Z M 36 0.238281 " clip-rule="nonzero"/></clipPath><clipPath id="7581ef145a"><rect x="0" width="45" y="0" height="14"/></clipPath><clipPath id="d6b35311e4"><path d="M 96.675781 76.1875 L 102.675781 76.1875 L 102.675781 82.1875 L 96.675781 82.1875 Z M 96.675781 76.1875 " clip-rule="nonzero"/></clipPath><clipPath id="00aa9d2199"><path d="M 42 54.546875 L 96.972656 54.546875 L 96.972656 99.546875 L 42 99.546875 Z M 42 54.546875 " clip-rule="nonzero"/></clipPath><clipPath id="2e7049b92b"><path d="M 1 4 L 6 4 L 6 7.359375 L 1 7.359375 Z M 1 4 " clip-rule="nonzero"/></clipPath><clipPath id="62354822ad"><rect x="0" width="15" y="0" height="8"/></clipPath></defs><rect x="-15" width="180" fill="#ffffff" y="-15" height="179.999997" fill-opacity="1"/><rect x="-15" fill="url(#5af5be59fd)" width="180" y="-15" height="179.999997"/><g clip-path="url(#7271335610)"><path fill="#231f20" d="M 55.746094 100.328125 C 55.78125 100.675781 55.925781 100.972656 56.171875 101.222656 C 56.421875 101.46875 56.71875 101.613281 57.066406 101.648438 C 57.472656 101.695312 57.996094 101.722656 58.671875 101.722656 C 57.996094 101.722656 57.472656 101.753906 57.066406 101.796875 C 56.71875 101.835938 56.421875 101.976562 56.171875 102.226562 C 55.925781 102.472656 55.78125 102.769531 55.746094 103.117188 C 55.699219 103.523438 55.671875 104.046875 55.671875 104.722656 C 55.671875 104.046875 55.640625 103.523438 55.597656 103.117188 C 55.558594 102.769531 55.417969 102.472656 55.167969 102.226562 C 54.921875 101.976562 54.625 101.835938 54.277344 101.796875 C 53.871094 101.753906 53.347656 101.722656 52.671875 101.722656 C 53.347656 101.722656 53.871094 101.695312 54.277344 101.648438 C 54.625 101.613281 54.921875 101.46875 55.167969 101.222656 C 55.417969 100.972656 55.558594 100.675781 55.597656 100.328125 C 55.640625 99.921875 55.671875 99.398438 55.671875 98.722656 C 55.671875 99.398438 55.699219 99.921875 55.746094 100.328125 Z M 55.746094 100.328125 " fill-opacity="1" fill-rule="nonzero"/></g><g transform="matrix(1, 0, 0, 1, 60, 84)"><g clip-path="url(#7581ef145a)"><g clip-path="url(#4ea36e8648)"><g fill="#000000" fill-opacity="1"><g transform="translate(0.0351247, 9.981988)"><g><path d="M 6.125 -7.609375 C 5.789062 -7.785156 5.4375 -7.929688 5.0625 -8.046875 C 4.6875 -8.160156 4.332031 -8.21875 4 -8.21875 C 3.488281 -8.21875 3.085938 -8.101562 2.796875 -7.875 C 2.503906 -7.644531 2.359375 -7.332031 2.359375 -6.9375 C 2.359375 -6.5625 2.53125 -6.25 2.875 -6 C 3.21875 -5.757812 3.710938 -5.519531 4.359375 -5.28125 C 4.835938 -5.101562 5.238281 -4.914062 5.5625 -4.71875 C 5.894531 -4.519531 6.171875 -4.242188 6.390625 -3.890625 C 6.609375 -3.535156 6.71875 -3.082031 6.71875 -2.53125 C 6.71875 -2.039062 6.59375 -1.59375 6.34375 -1.1875 C 6.09375 -0.789062 5.738281 -0.472656 5.28125 -0.234375 C 4.820312 -0.00390625 4.285156 0.109375 3.671875 0.109375 C 3.097656 0.109375 2.546875 0.015625 2.015625 -0.171875 C 1.492188 -0.359375 1.03125 -0.59375 0.625 -0.875 L 1.171875 -1.859375 C 1.492188 -1.617188 1.875 -1.414062 2.3125 -1.25 C 2.757812 -1.082031 3.175781 -1 3.5625 -1 C 4.0625 -1 4.492188 -1.125 4.859375 -1.375 C 5.234375 -1.632812 5.421875 -2.019531 5.421875 -2.53125 C 5.421875 -2.957031 5.265625 -3.296875 4.953125 -3.546875 C 4.640625 -3.796875 4.203125 -4.03125 3.640625 -4.25 C 3.117188 -4.445312 2.679688 -4.640625 2.328125 -4.828125 C 1.984375 -5.015625 1.6875 -5.269531 1.4375 -5.59375 C 1.195312 -5.925781 1.078125 -6.34375 1.078125 -6.84375 C 1.078125 -7.570312 1.328125 -8.160156 1.828125 -8.609375 C 2.335938 -9.054688 3 -9.289062 3.8125 -9.3125 C 4.8125 -9.3125 5.738281 -9.066406 6.59375 -8.578125 Z M 6.125 -7.609375 "/></g></g></g></g><g clip-path="url(#ce3b11f456)"><g fill="#000000" fill-opacity="1"><g transform="translate(7.491922, 9.981988)"><g><path d="M 6.1875 -2.4375 L 2.625 -2.4375 L 1.640625 0 L 0.40625 0 L 4.453125 -9.640625 L 4.53125 -9.640625 L 8.578125 0 L 7.15625 0 Z M 5.765625 -3.515625 L 4.453125 -6.890625 L 3.078125 -3.515625 Z M 5.765625 -3.515625 "/></g></g></g></g><g clip-path="url(#b2cebbc045)"><g fill="#000000" fill-opacity="1"><g transform="translate(16.473393, 9.981988)"><g><path d="M 2.5625 -5.078125 L 2.71875 -5.3125 L 6.515625 -9.265625 L 8.109375 -9.265625 L 4.28125 -5.296875 L 8.328125 0 L 6.75 0 L 3.375 -4.5 L 2.59375 -3.734375 L 2.59375 0 L 1.328125 0 L 1.328125 -9.265625 L 2.59375 -9.265625 L 2.59375 -5.53125 Z M 2.5625 -5.078125 "/></g></g></g></g><g clip-path="url(#9ced3777c2)"><g fill="#000000" fill-opacity="1"><g transform="translate(25.185801, 9.981988)"><g><path d="M 9.40625 -9.265625 L 9.40625 0.3125 L 9.359375 0.3125 L 2.5625 -6.59375 L 2.59375 0 L 1.328125 0 L 1.328125 -9.546875 L 1.390625 -9.546875 L 8.1875 -2.5625 L 8.15625 -9.265625 Z M 9.40625 -9.265625 "/></g></g></g></g><g clip-path="url(#011d95a5d5)"><g fill="#000000" fill-opacity="1"><g transform="translate(35.922565, 9.981988)"><g><path d="M 8.5 -9.265625 L 5.03125 -3.09375 L 5.03125 0 L 3.796875 0 L 3.796875 -3.09375 L 0.359375 -9.265625 L 1.890625 -9.265625 L 4.453125 -4.5 L 6.984375 -9.265625 Z M 8.5 -9.265625 "/></g></g></g></g></g></g><g clip-path="url(#d6b35311e4)"><path fill="#231f20" d="M 99.746094 77.792969 C 99.785156 78.140625 99.929688 78.4375 100.175781 78.683594 C 100.421875 78.933594 100.722656 79.074219 101.070312 79.113281 C 101.472656 79.15625 102 79.1875 102.675781 79.1875 C 102 79.1875 101.472656 79.214844 101.070312 79.257812 C 100.722656 79.296875 100.421875 79.441406 100.175781 79.6875 C 99.929688 79.933594 99.785156 80.234375 99.746094 80.582031 C 99.703125 80.988281 99.675781 81.511719 99.675781 82.1875 C 99.675781 81.511719 99.644531 80.988281 99.601562 80.582031 C 99.5625 80.234375 99.421875 79.933594 99.171875 79.6875 C 98.925781 79.441406 98.628906 79.296875 98.277344 79.257812 C 97.875 79.214844 97.351562 79.1875 96.675781 79.1875 C 97.351562 79.1875 97.875 79.15625 98.277344 79.113281 C 98.628906 79.074219 98.925781 78.933594 99.171875 78.683594 C 99.421875 78.4375 99.5625 78.140625 99.601562 77.792969 C 99.644531 77.386719 99.675781 76.863281 99.675781 76.1875 C 99.675781 76.863281 99.703125 77.386719 99.746094 77.792969 Z M 99.746094 77.792969 " fill-opacity="1" fill-rule="nonzero"/></g><path fill="#000000" d="M 71.253906 68.699219 L 73.585938 68.699219 L 73.585938 66.300781 C 73.609375 66.300781 71.363281 66.433594 71.253906 68.699219 Z M 71.253906 68.699219 " fill-opacity="1" fill-rule="nonzero"/><path fill="#000000" d="M 71.253906 69.269531 L 73.609375 69.269531 L 73.609375 71.648438 L 71.253906 71.648438 Z M 71.253906 69.269531 " fill-opacity="1" fill-rule="nonzero"/><path fill="#000000" d="M 74.050781 66.300781 L 74.050781 68.699219 L 76.382812 68.699219 C 76.292969 66.433594 74.050781 66.300781 74.050781 66.300781 Z M 74.050781 66.300781 " fill-opacity="1" fill-rule="nonzero"/><path fill="#000000" d="M 74.050781 69.269531 L 76.402344 69.269531 L 76.402344 71.648438 L 74.050781 71.648438 Z M 74.050781 69.269531 " fill-opacity="1" fill-rule="nonzero"/><g clip-path="url(#00aa9d2199)"><path fill="#000000" d="M 74.246094 54.546875 L 68.019531 62.25 L 68.019531 59.347656 L 65.707031 59.347656 L 65.707031 65.113281 L 59.238281 73.101562 L 73.808594 62.449219 L 93.679688 77.214844 C 75.589844 71.605469 52.945312 74.574219 45.484375 82.894531 C 36.988281 92.996094 52.460938 99.617188 52.460938 99.617188 C 45.550781 93.609375 45.835938 87.734375 49.863281 83.816406 C 55.847656 78.316406 63.066406 77.214844 66.609375 76.511719 C 81.839844 73.871094 93.304688 77.742188 95.570312 78.601562 L 95.703125 78.691406 C 67.535156 71.800781 55.078125 82.144531 55.078125 82.144531 C 75.941406 73.101562 96.957031 79.660156 96.957031 79.660156 Z M 74.246094 54.546875 " fill-opacity="1" fill-rule="nonzero"/></g><g transform="matrix(1, 0, 0, 1, 69, 98)"><g clip-path="url(#62354822ad)"><g clip-path="url(#2e7049b92b)"><g fill="#000000" fill-opacity="1"><g transform="translate(0.999075, 4.967713)"><g><path d="M 0.15625 0 C 0.15625 -0.125 0.171875 -0.265625 0.203125 -0.421875 C 0.242188 -0.585938 0.304688 -0.765625 0.390625 -0.953125 L 0.78125 -0.8125 C 0.726562 -0.65625 0.6875 -0.515625 0.65625 -0.390625 C 0.625 -0.265625 0.609375 -0.144531 0.609375 -0.03125 C 0.609375 0.164062 0.664062 0.328125 0.78125 0.453125 C 0.90625 0.578125 1.0625 0.671875 1.25 0.734375 C 1.445312 0.796875 1.660156 0.828125 1.890625 0.828125 C 2.171875 0.828125 2.425781 0.789062 2.65625 0.71875 C 2.882812 0.65625 3.066406 0.566406 3.203125 0.453125 C 3.347656 0.347656 3.421875 0.234375 3.421875 0.109375 C 3.421875 0.015625 3.347656 -0.0625 3.203125 -0.125 C 3.054688 -0.195312 2.851562 -0.269531 2.59375 -0.34375 L 2.6875 -0.796875 C 3.0625 -0.648438 3.351562 -0.550781 3.5625 -0.5 C 3.78125 -0.445312 3.945312 -0.421875 4.0625 -0.421875 C 4.132812 -0.421875 4.1875 -0.398438 4.21875 -0.359375 C 4.257812 -0.316406 4.28125 -0.265625 4.28125 -0.203125 C 4.28125 -0.148438 4.253906 -0.0976562 4.203125 -0.046875 C 4.148438 0.00390625 4.082031 0.03125 4 0.03125 L 3.796875 0.03125 C 3.804688 0.0625 3.8125 0.0859375 3.8125 0.109375 C 3.820312 0.128906 3.828125 0.15625 3.828125 0.1875 C 3.828125 0.363281 3.742188 0.535156 3.578125 0.703125 C 3.410156 0.867188 3.175781 1.003906 2.875 1.109375 C 2.570312 1.210938 2.203125 1.265625 1.765625 1.265625 C 1.484375 1.265625 1.21875 1.21875 0.96875 1.125 C 0.726562 1.03125 0.53125 0.890625 0.375 0.703125 C 0.226562 0.515625 0.15625 0.28125 0.15625 0 Z M 2.15625 2.296875 C 2.082031 2.296875 2.019531 2.269531 1.96875 2.21875 C 1.914062 2.164062 1.890625 2.101562 1.890625 2.03125 C 1.890625 1.957031 1.914062 1.890625 1.96875 1.828125 C 2.019531 1.773438 2.082031 1.75 2.15625 1.75 C 2.226562 1.75 2.289062 1.773438 2.34375 1.828125 C 2.394531 1.890625 2.421875 1.957031 2.421875 2.03125 C 2.421875 2.101562 2.394531 2.164062 2.34375 2.21875 C 2.289062 2.269531 2.226562 2.296875 2.15625 2.296875 Z M 1.40625 2.296875 C 1.332031 2.296875 1.269531 2.269531 1.21875 2.21875 C 1.164062 2.164062 1.140625 2.101562 1.140625 2.03125 C 1.140625 1.957031 1.164062 1.890625 1.21875 1.828125 C 1.269531 1.773438 1.332031 1.75 1.40625 1.75 C 1.476562 1.75 1.539062 1.773438 1.59375 1.828125 C 1.65625 1.890625 1.6875 1.957031 1.6875 2.03125 C 1.6875 2.101562 1.65625 2.164062 1.59375 2.21875 C 1.539062 2.269531 1.476562 2.296875 1.40625 2.296875 Z M 1.40625 2.296875 "/></g></g></g></g><g fill="#000000" fill-opacity="1"><g transform="translate(4.99463, 4.967713)"><g><path d="M 0 0.03125 L 0.046875 -0.421875 C 0.203125 -0.421875 0.320312 -0.429688 0.40625 -0.453125 C 0.5 -0.484375 0.566406 -0.535156 0.609375 -0.609375 C 0.660156 -0.691406 0.703125 -0.804688 0.734375 -0.953125 C 0.765625 -1.109375 0.800781 -1.300781 0.84375 -1.53125 L 1.265625 -1.453125 C 1.242188 -1.359375 1.21875 -1.25 1.1875 -1.125 C 1.164062 -1 1.15625 -0.890625 1.15625 -0.796875 C 1.15625 -0.722656 1.171875 -0.65625 1.203125 -0.59375 C 1.234375 -0.539062 1.300781 -0.5 1.40625 -0.46875 C 1.519531 -0.4375 1.691406 -0.421875 1.921875 -0.421875 C 1.992188 -0.421875 2.046875 -0.398438 2.078125 -0.359375 C 2.117188 -0.316406 2.140625 -0.265625 2.140625 -0.203125 C 2.140625 -0.148438 2.113281 -0.0976562 2.0625 -0.046875 C 2.007812 0.00390625 1.941406 0.03125 1.859375 0.03125 C 1.578125 0.03125 1.363281 0 1.21875 -0.0625 C 1.082031 -0.125 0.992188 -0.21875 0.953125 -0.34375 C 0.835938 -0.1875 0.707031 -0.0820312 0.5625 -0.03125 C 0.425781 0.0078125 0.238281 0.03125 0 0.03125 Z M 1.015625 -2.09375 C 0.941406 -2.09375 0.878906 -2.117188 0.828125 -2.171875 C 0.773438 -2.222656 0.75 -2.285156 0.75 -2.359375 C 0.75 -2.429688 0.773438 -2.492188 0.828125 -2.546875 C 0.878906 -2.597656 0.941406 -2.625 1.015625 -2.625 C 1.085938 -2.625 1.148438 -2.597656 1.203125 -2.546875 C 1.265625 -2.492188 1.296875 -2.429688 1.296875 -2.359375 C 1.296875 -2.285156 1.265625 -2.222656 1.203125 -2.171875 C 1.148438 -2.117188 1.085938 -2.09375 1.015625 -2.09375 Z M 1.015625 -2.09375 "/></g></g></g><g fill="#000000" fill-opacity="1"><g transform="translate(6.856687, 4.967713)"><g><path d="M 0 0.03125 L 0.046875 -0.421875 L 0.46875 -0.421875 C 0.769531 -0.421875 0.992188 -0.4375 1.140625 -0.46875 C 1.285156 -0.5 1.378906 -0.539062 1.421875 -0.59375 C 1.472656 -0.644531 1.5 -0.703125 1.5 -0.765625 C 1.5 -0.847656 1.460938 -0.941406 1.390625 -1.046875 C 1.328125 -1.160156 1.242188 -1.269531 1.140625 -1.375 C 1.046875 -1.488281 0.941406 -1.597656 0.828125 -1.703125 C 0.710938 -1.816406 0.601562 -1.914062 0.5 -2 C 0.394531 -2.09375 0.3125 -2.171875 0.25 -2.234375 C 0.1875 -2.304688 0.15625 -2.359375 0.15625 -2.390625 C 0.15625 -2.472656 0.160156 -2.550781 0.171875 -2.625 C 0.191406 -2.695312 0.222656 -2.753906 0.265625 -2.796875 C 0.359375 -2.898438 0.5 -3.007812 0.6875 -3.125 C 0.882812 -3.238281 1.101562 -3.351562 1.34375 -3.46875 C 1.59375 -3.59375 1.847656 -3.71875 2.109375 -3.84375 L 2.296875 -3.4375 C 1.972656 -3.28125 1.65625 -3.125 1.34375 -2.96875 C 1.039062 -2.820312 0.773438 -2.671875 0.546875 -2.515625 C 0.753906 -2.347656 0.941406 -2.179688 1.109375 -2.015625 C 1.285156 -1.859375 1.445312 -1.6875 1.59375 -1.5 C 1.75 -1.320312 1.882812 -1.117188 2 -0.890625 C 2.082031 -0.742188 2.171875 -0.640625 2.265625 -0.578125 C 2.367188 -0.515625 2.46875 -0.472656 2.5625 -0.453125 C 2.664062 -0.429688 2.75 -0.421875 2.8125 -0.421875 C 2.894531 -0.421875 2.953125 -0.398438 2.984375 -0.359375 C 3.015625 -0.316406 3.03125 -0.265625 3.03125 -0.203125 C 3.03125 -0.148438 3.003906 -0.0976562 2.953125 -0.046875 C 2.898438 0.00390625 2.835938 0.03125 2.765625 0.03125 C 2.671875 0.03125 2.566406 0.0195312 2.453125 0 C 2.347656 -0.03125 2.234375 -0.078125 2.109375 -0.140625 C 1.992188 -0.210938 1.894531 -0.3125 1.8125 -0.4375 C 1.738281 -0.332031 1.644531 -0.242188 1.53125 -0.171875 C 1.425781 -0.109375 1.285156 -0.0546875 1.109375 -0.015625 C 0.941406 0.015625 0.722656 0.03125 0.453125 0.03125 Z M 0 0.03125 "/></g></g></g><g fill="#000000" fill-opacity="1"><g transform="translate(9.614488, 4.967713)"><g><path d="M 0 0.03125 L 0.046875 -0.421875 C 0.171875 -0.421875 0.269531 -0.425781 0.34375 -0.4375 C 0.414062 -0.457031 0.472656 -0.5 0.515625 -0.5625 C 0.566406 -0.632812 0.613281 -0.742188 0.65625 -0.890625 C 0.695312 -1.035156 0.75 -1.238281 0.8125 -1.5 L 1.21875 -1.375 C 1.195312 -1.28125 1.171875 -1.171875 1.140625 -1.046875 C 1.109375 -0.921875 1.09375 -0.804688 1.09375 -0.703125 C 1.09375 -0.617188 1.128906 -0.550781 1.203125 -0.5 C 1.273438 -0.445312 1.398438 -0.421875 1.578125 -0.421875 C 1.679688 -0.421875 1.769531 -0.425781 1.84375 -0.4375 C 1.914062 -0.457031 1.972656 -0.503906 2.015625 -0.578125 C 2.054688 -0.648438 2.09375 -0.757812 2.125 -0.90625 C 2.164062 -1.050781 2.207031 -1.257812 2.25 -1.53125 L 2.671875 -1.453125 C 2.648438 -1.390625 2.628906 -1.3125 2.609375 -1.21875 C 2.597656 -1.125 2.585938 -1.03125 2.578125 -0.9375 C 2.566406 -0.84375 2.5625 -0.765625 2.5625 -0.703125 C 2.5625 -0.648438 2.570312 -0.601562 2.59375 -0.5625 C 2.625 -0.519531 2.671875 -0.484375 2.734375 -0.453125 C 2.804688 -0.429688 2.914062 -0.421875 3.0625 -0.421875 C 3.21875 -0.421875 3.34375 -0.453125 3.4375 -0.515625 C 3.53125 -0.578125 3.578125 -0.703125 3.578125 -0.890625 C 3.578125 -1.023438 3.546875 -1.195312 3.484375 -1.40625 C 3.421875 -1.613281 3.347656 -1.820312 3.265625 -2.03125 L 3.703125 -2.1875 C 3.753906 -2.070312 3.800781 -1.941406 3.84375 -1.796875 C 3.882812 -1.648438 3.914062 -1.503906 3.9375 -1.359375 C 3.96875 -1.210938 3.984375 -1.082031 3.984375 -0.96875 C 3.984375 -0.632812 3.898438 -0.382812 3.734375 -0.21875 C 3.566406 -0.0507812 3.34375 0.03125 3.0625 0.03125 C 2.851562 0.03125 2.691406 0.00390625 2.578125 -0.046875 C 2.472656 -0.0976562 2.394531 -0.179688 2.34375 -0.296875 C 2.25 -0.160156 2.140625 -0.0703125 2.015625 -0.03125 C 1.898438 0.0078125 1.734375 0.03125 1.515625 0.03125 C 1.429688 0.03125 1.347656 0.0195312 1.265625 0 C 1.179688 -0.0195312 1.101562 -0.0546875 1.03125 -0.109375 C 0.957031 -0.160156 0.898438 -0.238281 0.859375 -0.34375 C 0.765625 -0.1875 0.644531 -0.0820312 0.5 -0.03125 C 0.363281 0.0078125 0.195312 0.03125 0 0.03125 Z M 0 0.03125 "/></g></g></g></g></g></svg>